<?xml version="1.0" encoding="UTF-8" standalone="no"?>
<svg
   width="32"
   height="32"
   viewBox="0 0 24 24"
   version="1.1"
   id="svg1"
   sodipodi:docname="puzzle.svg"
   inkscape:version="1.4 (e7c3feb100, 2024-10-09)"
   xmlns:inkscape="http://www.inkscape.org/namespaces/inkscape"
   xmlns:sodipodi="http://sodipodi.sourceforge.net/DTD/sodipodi-0.dtd"
   xmlns="http://www.w3.org/2000/svg"
   xmlns:svg="http://www.w3.org/2000/svg">
  <defs
     id="defs1" />
  <sodipodi:namedview
     id="namedview1"
     pagecolor="#505050"
     bordercolor="#ffffff"
     borderopacity="1"
     inkscape:showpageshadow="0"
     inkscape:pageopacity="0"
     inkscape:pagecheckerboard="1"
     inkscape:deskcolor="#d1d1d1"
     inkscape:zoom="2.6337271"
     inkscape:cx="-42.525287"
     inkscape:cy="-2.8476755"
     inkscape:window-width="1872"
     inkscape:window-height="1010"
     inkscape:window-x="0"
     inkscape:window-y="0"
     inkscape:window-maximized="1"
     inkscape:current-layer="svg1" />
  <rect
     style="fill:#333333;stroke-width:0.75;stroke-linecap:round;stroke-linejoin:round;paint-order:stroke fill markers;fill-opacity:1"
     id="rect2"
     width="24"
     height="24"
     x="0"
     y="0" />
  <path
     d="m 23,13.5 v 0.03 A 5.97,5.97 0 0 0 19,12 c -3.31,0 -6,2.69 -6,6 0,0.34 0.04,0.67 0.09,1 H 12.75 A 2.68,2.68 0 0 0 10.5,17.8 C 9,17.8 7.8,19 7.8,20.5 V 22 H 4 A 2,2 0 0 1 2,20 V 16.2 H 3.5 C 5,16.2 6.2,15 6.2,13.5 6.2,12 5,10.8 3.5,10.8 H 2 V 7 C 2,5.9 2.9,5 4,5 H 8 V 3.5 a 2.5,2.5 0 0 1 5,0 V 5 h 4 a 2,2 0 0 1 2,2 v 4 h 1.5 a 2.5,2.5 0 0 1 2.5,2.5"
     id="path2"
     style="fill:#278ad9;fill-opacity:1" />
  <path
     fill="currentColor"
     d="m 19,21.79 c -1.1,0 -2.1,-0.4 -2.8,-1.2 l -1.2,1.2 v -4 h 4 l -1.8,1.8 c 0.5,0.4 1.1,0.7 1.8,0.7 1.4,0 2.5,-1.1 2.5,-2.5 0,-1.4 -1.1,-2.5 -2.5,-2.5 -0.8,0 -1.5,0.4 -2,1 h -1.7 c 0.6,-1.5 2,-2.5 3.7,-2.5 2.2,0 4,1.8 4,4 0,2.2 -1.8,4 -4,4"
     id="path1-2"
     sodipodi:nodetypes="ccccccsssccssc"
     style="fill:#ff9e2c;fill-opacity:1" />
</svg>
