<?xml version="1.0" encoding="UTF-8" standalone="no"?>
<svg
   width="32"
   height="32"
   viewBox="0 0 16 16"
   version="1.1"
   id="svg5"
   sodipodi:docname="icon.svg"
   inkscape:version="1.4 (e7c3feb100, 2024-10-09)"
   xmlns:inkscape="http://www.inkscape.org/namespaces/inkscape"
   xmlns:sodipodi="http://sodipodi.sourceforge.net/DTD/sodipodi-0.dtd"
   xmlns="http://www.w3.org/2000/svg"
   xmlns:svg="http://www.w3.org/2000/svg">
  <defs
     id="defs5">
    <inkscape:path-effect
       effect="bool_op"
       operand-path=""
       id="path-effect38"
       is_visible="true"
       lpeversion="1"
       operation="diff"
       swap-operands="false"
       filltype-this="from-curve"
       filter=""
       filltype-operand="from-curve" />
    <inkscape:path-effect
       effect="bool_op"
       operand-path=""
       id="path-effect36"
       is_visible="true"
       lpeversion="1"
       operation="diff"
       swap-operands="false"
       filltype-this="from-curve"
       filter=""
       filltype-operand="from-curve" />
    <inkscape:path-effect
       effect="bool_op"
       operand-path=""
       id="path-effect34"
       is_visible="true"
       lpeversion="1"
       operation="diff"
       swap-operands="false"
       filltype-this="from-curve"
       filter=""
       filltype-operand="from-curve" />
    <inkscape:path-effect
       effect="offset"
       id="path-effect32"
       is_visible="true"
       lpeversion="1.3"
       linejoin_type="miter"
       unit="mm"
       offset="0.698236"
       miter_limit="4"
       attempt_force_join="false"
       update_on_knot_move="true" />
    <inkscape:path-effect
       effect="offset"
       id="path-effect31"
       is_visible="true"
       lpeversion="1.3"
       linejoin_type="miter"
       unit="mm"
       offset="0"
       miter_limit="4"
       attempt_force_join="false"
       update_on_knot_move="true" />
    <filter
       id="selectable_hidder_filter"
       width="1"
       height="1"
       x="0"
       y="0"
       style="color-interpolation-filters:sRGB;"
       inkscape:label="LPE boolean visibility">
      <feComposite
         id="boolops_hidder_primitive"
         result="composite1"
         operator="arithmetic"
         in2="SourceGraphic"
         in="BackgroundImage" />
    </filter>
    <inkscape:path-effect
       effect="bool_op"
       operand-path=""
       id="path-effect30"
       is_visible="true"
       lpeversion="1"
       operation="diff"
       swap-operands="false"
       filltype-this="from-curve"
       filter=""
       filltype-operand="from-curve" />
    <inkscape:path-effect
       effect="offset"
       id="path-effect29"
       is_visible="true"
       lpeversion="1.3"
       linejoin_type="miter"
       unit="mm"
       offset="0.7"
       miter_limit="4"
       attempt_force_join="false"
       update_on_knot_move="true" />
  </defs>
  <sodipodi:namedview
     id="namedview5"
     pagecolor="#bebebe"
     bordercolor="#ffffff"
     borderopacity="1"
     inkscape:showpageshadow="0"
     inkscape:pageopacity="0"
     inkscape:pagecheckerboard="1"
     inkscape:deskcolor="#d1d1d1"
     showguides="true"
     inkscape:zoom="8"
     inkscape:cx="-4.5625"
     inkscape:cy="-17.0625"
     inkscape:window-width="1880"
     inkscape:window-height="1012"
     inkscape:window-x="0"
     inkscape:window-y="0"
     inkscape:window-maximized="1"
     inkscape:current-layer="g32" />
  <rect
     style="fill:#333333;fill-opacity:1;stroke:none;stroke-width:0.5;stroke-linecap:round;stroke-linejoin:round;stroke-opacity:1;paint-order:stroke fill markers"
     id="rect32"
     width="16"
     height="16"
     x="0"
     y="0"
     ry="0" />
  <g
     id="g38"
     transform="translate(0,-0.02209709)">
    <path
       style="stroke-width:1.6;stroke-linecap:round;stroke-linejoin:round;fill:#7ccbf3;fill-opacity:1"
       inkscape:path-effect="#path-effect38"
       inkscape:original-d="m 1.3333336,9.0000007 v -6.333333 c 0,-0.733334 0.6,-1.333334 1.333334,-1.333334 h 2.666666 c 0.733334,0 1.333334,0.6 1.333334,1.333334 v 1 z"
       d="m 1.3333336,9.0000007 v -6.333333 c 0,-0.733334 0.6,-1.333334 1.333334,-1.333334 h 2.666666 c 0.733334,0 1.333334,0.6 1.333334,1.333334 v 1 z"
       id="path36" />
    <path
       style="stroke-width:1.6;stroke-linecap:round;stroke-linejoin:round;fill:#5ab0e8;fill-opacity:1"
       inkscape:path-effect="#path-effect36"
       inkscape:original-d="m 4.2000006,8.0000007 4.466666,-4.466667 c 0.5333338,-0.533333 1.3333334,-0.533333 1.8666664,0 L 12.4,5.4000007 c 0.533333,0.533333 0.533333,1.333333 0,1.866666 l -0.6,0.733334 z"
       d="m 4.2000006,8.0000007 4.466666,-4.466667 c 0.5333338,-0.533333 1.3333334,-0.533333 1.8666664,0 L 12.4,5.4000007 c 0.533333,0.533333 0.533333,1.333333 0,1.866666 l -0.6,0.733334 z"
       id="path34" />
    <path
       style="stroke-width:1.6;stroke-linecap:round;stroke-linejoin:round;fill:#288ad9;fill-opacity:1"
       inkscape:path-effect="#path-effect30"
       inkscape:original-d="M 13.333333,9.3333337 H 4.0000006 c -1.466667,0 -2.666667,1.1999993 -2.666667,2.6666663 0,1.466666 1.2,2.666666 2.666667,2.666666 h 9.3333324 c 0.733333,0 1.333333,-0.6 1.333333,-1.333333 v -2.666667 c 0,-0.7333323 -0.6,-1.3333323 -1.333333,-1.3333323"
       d="M 13.333333,9.3333337 H 4.0000006 c -1.466667,0 -2.666667,1.1999993 -2.666667,2.6666663 0,1.466666 1.2,2.666666 2.666667,2.666666 h 9.3333324 c 0.733333,0 1.333333,-0.6 1.333333,-1.333333 v -2.666667 c 0,-0.7333323 -0.6,-1.3333323 -1.333333,-1.3333323"
       id="path1" />
    <path
       style="stroke-width:1.6;stroke-linecap:round;stroke-linejoin:round;fill:#333333;fill-opacity:1"
       inkscape:path-effect="#path-effect34"
       inkscape:original-d="m 4.0000006,13.333333 c -0.733333,0 -1.333333,-0.6 -1.333333,-1.333333 0,-0.733334 0.6,-1.333334 1.333333,-1.333334 0.733333,0 1.333333,0.6 1.333333,1.333334 0,0.733333 -0.6,1.333333 -1.333333,1.333333"
       d="m 4.0000006,13.333333 c -0.733333,0 -1.333333,-0.6 -1.333333,-1.333333 0,-0.733334 0.6,-1.333334 1.333333,-1.333334 0.733333,0 1.333333,0.6 1.333333,1.333334 0,0.733333 -0.6,1.333333 -1.333333,1.333333"
       id="path32" />
  </g>
  <g
     id="g32"
     transform="matrix(0.14587301,1.3076714,-1.3076714,0.14587301,19.521094,-17.835641)"
     style="stroke-width:0.760004">
    <circle
       style="fill:#333333;fill-opacity:1;stroke:none;stroke-width:0.380002;stroke-linecap:round;stroke-linejoin:round;stroke-opacity:1;paint-order:stroke fill markers"
       id="path38"
       cx="16.160883"
       cy="7.9250097"
       r="3.2406158" />
    <path
       fill="currentColor"
       d="m 17.783025,9.4476833 c 0.271822,-0.286137 0.45181,-0.6227327 0.543832,-1.0061137 0.09202,-0.383381 0.07848,-0.764054 -0.02921,-1.1385389 C 18.19363,6.9246791 17.992945,6.6016221 17.706808,6.3297993 17.262136,5.9073724 16.732594,5.7059267 16.117988,5.717922 c -0.61828,0.015861 -1.133123,0.2403282 -1.548203,0.6772675 -0.08449,0.088934 -0.127015,0.1956572 -0.123729,0.3238346 10e-4,0.1223567 0.05327,0.2386826 0.144037,0.3207375 0.0928,0.088159 0.199523,0.1306905 0.327702,0.1274025 0.128183,-0.00329 0.236446,-0.047564 0.320931,-0.1364981 0.24611,-0.2590698 0.548288,-0.3913139 0.913881,-0.4044656 0.361919,-0.00928 0.67048,0.1072907 0.933417,0.3570737 0.255203,0.2424363 0.387447,0.5446143 0.396732,0.9065335 0.0093,0.36192 -0.110964,0.674348 -0.357073,0.933418 -0.220397,0.2320027 -0.484681,0.3708197 -0.792661,0.4239907 -0.311845,0.0495 -0.573619,-0.0079 -0.789381,-0.183462 l 0.301793,-1.98e-4 c 0.1131,-0.0029 0.213826,-0.04698 0.298311,-0.135917 0.09183,-0.09667 0.14558,-0.2074467 0.153502,-0.3396887 9.62e-4,-0.109429 -0.03538,-0.202806 -0.12045,-0.283618 -0.0814,-0.08468 -0.199715,-0.138231 -0.355156,-0.168195 l -1.390645,0.05454 c -0.128182,0.0033 -0.228906,0.04737 -0.309718,0.132437 -0.09183,0.09667 -0.134362,0.20339 -0.127403,0.327702 l 0.03153,1.3761454 c 0.0015,0.124464 0.0536,0.242957 0.144232,0.32828 0.08894,0.08449 0.195655,0.127017 0.319969,0.120055 0.12431,-0.007 0.228712,-0.05491 0.316871,-0.14771 0.08816,-0.0928 0.130886,-0.19198 0.124115,-0.308755 l -0.0031,-0.2677697 c 0.449118,0.3015947 0.939025,0.4286087 1.477071,0.3733077 0.538239,-0.04776 0.996436,-0.2745477 1.378457,-0.6766867"
       id="path1-7"
       sodipodi:nodetypes="cscscsccsscssscccsccccscccsscccc"
       style="fill:#ff9e2c;fill-opacity:1;stroke-width:0.405335" />
  </g>
</svg>
